<svg xmlns="http://www.w3.org/2000/svg" version="1.1" viewBox="-5.0 -10.0 110.0 135.0">
 <path d="m81.668 33.332c0.44141 0 0.86328-0.17578 1.1758-0.48828s0.48828-0.73438 0.48828-1.1758v-13.035l5.0352-1.2344h0.003906c1.918-0.40625 3.293-2.1016 3.293-4.0664 0-1.9609-1.375-3.6562-3.293-4.0625l-37.285-9.1406c-0.71484-0.16797-1.457-0.16797-2.168 0l-37.289 9.1406c-1.918 0.40625-3.293 2.1016-3.293 4.0625 0 1.9648 1.375 3.6602 3.293 4.0664l15.039 3.6875v17.855c-7.0898 6.3398-11.293 15.289-11.645 24.789-0.35156 9.5 3.1758 18.738 9.7734 25.582 6.5977 6.8477 15.695 10.715 25.203 10.715s18.605-3.8672 25.203-10.715c6.5977-6.8438 10.125-16.082 9.7734-25.582-0.35156-9.5-4.5547-18.449-11.645-24.789v-17.855l6.668-1.6367v12.219c0 0.44141 0.17578 0.86328 0.48828 1.1758s0.73828 0.48828 1.1797 0.48828zm-70-20c0.003906-0.42969 0.32812-0.78516 0.75391-0.83203l37.281-9.1328c0.097656-0.023438 0.19531-0.035157 0.29688-0.035157 0.097656 0 0.19922 0.011719 0.29688 0.035157l37.281 9.1328c0.41797 0.054688 0.73047 0.40625 0.73047 0.82812 0 0.41797-0.3125 0.77344-0.73047 0.82422l-5.9531 1.4609-31.418-3.9336c-0.90234-0.089844-1.7109 0.55469-1.8203 1.4531-0.11328 0.89844 0.51172 1.7188 1.4062 1.8555l22.762 2.8555-22.258 5.4531c-0.19531 0.050781-0.39844 0.050781-0.59375 0l-37.281-9.1289c-0.42969-0.046875-0.75-0.40625-0.75391-0.83594zm16.738 28.527c2.3047 1.4727 4.8398 2.5508 7.5 3.1875l-5.5664 6.375c-1.3047 1.4922-2.0234 3.4102-2.0234 5.3945-0.003906 2.6758-2.1719 4.8477-4.8516 4.8516h-4.9531c0.79688-7.582 4.3125-14.617 9.8945-19.809zm-6.0742 38.496 1.5508-3.0977c0.55469-1.1094 1.5781-1.9023 2.7891-2.1641 1.2109-0.25781 2.4727 0.046875 3.4297 0.82812 2.7891 2.4141 5.957 4.3438 9.3789 5.7148 1.3242 0.52344 2.1914 1.8047 2.1875 3.2305v3.082c-0.003907 1.3086-0.52344 2.5625-1.4453 3.4883-0.83594 0.84766-1.4766 1.8633-1.8828 2.9766-6.7891-2.707-12.445-7.6719-16.008-14.059zm27.668 16.312c-2.8789-0.007813-5.7383-0.41016-8.5078-1.1953 0.24219-0.62891 0.61328-1.1992 1.0859-1.6758 1.5469-1.5547 2.4141-3.6562 2.4219-5.8477v-3.082c-0.003906-2.8008-1.7227-5.3164-4.332-6.332-3.0781-1.2422-5.9258-2.9844-8.4297-5.1602-1.7422-1.4336-4.0391-1.9961-6.2461-1.5273-2.207 0.46875-4.0781 1.9141-5.0859 3.9336l-0.36328 0.72656h-0.003907c-1.4492-3.6641-2.1992-7.5664-2.207-11.508h5.1328c4.5195-0.003906 8.1797-3.668 8.1836-8.1836 0.003906-1.1797 0.42969-2.3164 1.207-3.2031l5.8242-6.668c0.30078-0.33594 0.55859-0.71094 0.75781-1.1172 3.4922 0.58594 7.0234 0.86719 10.562 0.83984 4.2656 0.050781 8.5234-0.375 12.695-1.2695 0.054688 0.035156 0.10938 0.070312 0.16016 0.11328 0.30859 0.30469 0.48047 0.72266 0.47656 1.1562 0 0.44141-0.17578 0.86328-0.48828 1.1758s-0.73438 0.48828-1.1758 0.48828h-5.8359c-3.5078 0.003907-6.7969 1.7031-8.832 4.5625-2.0312 2.8555-2.5625 6.5195-1.418 9.8359 0.69531 2.1562 2.0859 4.0195 3.9492 5.3047 1.8477 1.2852 4.0508 1.9727 6.3008 1.9648 1.1055 0 2.168 0.4375 2.9492 1.2188s1.2188 1.8438 1.2188 2.9492v7.7148c0 2.2109 1.5156 4.1328 3.6641 4.6484 2.1484 0.51562 4.3711-0.51172 5.375-2.4805 4.543-9.1445 8.2891-18.664 11.195-28.449 2.9961 9.6094 1.2383 20.074-4.7305 28.18-5.9688 8.1094-15.438 12.891-25.504 12.887zm28.191-46.086c-2.9844 11.027-7.043 21.734-12.125 31.965-0.24609 0.48047-0.74219 0.78516-1.2812 0.78516-0.80078 0-1.4492-0.64844-1.4531-1.4492v-7.7148c-0.003906-4.1406-3.3594-7.4961-7.5-7.5-1.5703 0.003906-3.1055-0.47266-4.3984-1.3711-1.2656-0.87109-2.207-2.1328-2.6836-3.5938-0.80469-2.3398-0.42969-4.9258 1.0117-6.9375 1.4141-1.9414 3.668-3.0938 6.0703-3.0977h5.8359c1.7305 0.007812 3.3438-0.88672 4.2578-2.3594 0.91016-1.4766 0.98828-3.3203 0.20312-4.8672 1.9297-0.60547 3.7695-1.4727 5.4648-2.582 2.6914 2.5 4.9219 5.4531 6.5977 8.7227zm-8.1914-11.668c-1.5391 1.1328-7.1055 4.418-20 4.418-12.918 0-18.48-3.3008-20-4.4219v-17l18.914 4.6367c0.71094 0.17188 1.457 0.17188 2.168 0l18.918-4.6445z"/>
</svg>